<?xml version="1.0" standalone="no"?>
<!DOCTYPE svg PUBLIC "-//W3C//DTD SVG 20010904//EN"
 "http://www.w3.org/TR/2001/REC-SVG-20010904/DTD/svg10.dtd">
<svg version="1.0" xmlns="http://www.w3.org/2000/svg"
 width="260.000000pt" height="260.000000pt" viewBox="0 0 260.000000 260.000000"
 preserveAspectRatio="xMidYMid meet">
<metadata>
Created by potrace 1.11, written by Peter Selinger 2001-2013
</metadata>
<g transform="translate(0.000000,260.000000) scale(0.100000,-0.100000)"
fill="#000000" stroke="none">
<path d="M457 2363 c-4 -6 -22 -9 -42 -8 -19 1 -35 -2 -35 -7 0 -4 -3 -7 -7
-6 -14 5 -77 -25 -90 -42 -7 -8 -13 -11 -13 -7 0 4 -10 -3 -22 -17 -74 -80
-90 -119 -95 -225 -2 -47 -5 -96 -7 -108 -2 -12 1 -20 5 -17 5 3 9 0 9 -5 0
-6 -3 -11 -7 -11 -5 0 -8 -11 -8 -24 0 -13 3 -22 7 -19 5 2 8 -1 8 -6 0 -6 -3
-11 -7 -11 -5 0 -8 -11 -8 -24 0 -13 3 -22 7 -19 5 2 8 -1 8 -6 0 -6 -3 -11
-7 -11 -5 0 -8 -11 -8 -24 0 -13 3 -22 7 -19 5 2 8 -1 8 -6 0 -6 -3 -11 -7
-11 -5 0 -8 -11 -8 -24 0 -13 3 -22 7 -19 5 2 8 -1 8 -6 0 -6 -3 -11 -7 -11
-5 0 -8 -51 -8 -114 0 -63 3 -112 7 -109 5 2 8 -1 8 -6 0 -6 -3 -11 -7 -11 -5
0 -8 -11 -8 -24 0 -13 3 -22 7 -19 5 2 8 -1 8 -6 0 -6 -3 -11 -7 -11 -5 0 -8
-11 -8 -24 0 -13 3 -22 7 -19 5 2 8 -1 8 -6 0 -6 -3 -11 -7 -11 -5 0 -8 -11
-8 -24 0 -13 3 -22 7 -19 5 2 8 -1 8 -6 0 -6 -3 -11 -7 -11 -5 0 -8 -11 -8
-24 0 -13 3 -22 7 -19 5 2 8 -1 8 -6 0 -6 -3 -11 -7 -11 -5 0 -8 -51 -8 -114
0 -63 3 -112 8 -109 4 2 7 -1 7 -6 0 -6 -3 -11 -7 -11 -5 0 -8 -11 -8 -24 0
-13 3 -22 7 -19 5 2 8 -1 8 -6 0 -6 -3 -11 -7 -11 -5 0 -8 -11 -8 -24 0 -13 3
-22 7 -19 5 2 8 -1 8 -6 0 -6 -3 -11 -7 -11 -5 0 -8 -11 -8 -24 0 -13 3 -22 7
-19 5 2 8 -1 8 -6 0 -6 -3 -11 -7 -11 -5 0 -8 -11 -8 -24 0 -13 3 -22 7 -19 5
2 8 -1 8 -6 0 -6 -3 -11 -7 -11 -5 0 -8 -51 -8 -114 0 -63 3 -112 8 -109 4 2
7 -1 7 -6 0 -6 -3 -11 -7 -11 -5 0 -8 -11 -8 -24 0 -13 3 -22 7 -19 5 2 8 -1
8 -6 0 -6 -4 -11 -10 -11 -6 0 -6 -9 0 -26 7 -16 7 -23 0 -19 -7 4 -7 -2 0
-19 5 -15 5 -26 0 -28 -6 -2 -6 -9 -1 -17 8 -12 15 -8 38 19 15 19 40 47 55
62 15 15 25 28 22 28 -3 0 10 14 30 32 20 17 36 38 36 45 0 8 5 11 10 8 6 -3
10 -2 10 4 0 5 18 28 40 50 23 23 38 41 35 41 -2 0 17 22 44 50 27 28 47 50
45 50 -4 0 26 34 96 110 19 21 46 51 59 66 65 77 80 92 85 87 3 -4 6 -1 6 6 0
6 14 25 30 41 17 17 28 30 24 30 -3 0 12 18 35 40 22 22 39 40 36 40 -3 0 13
18 35 40 22 22 37 40 34 40 -4 0 10 15 30 34 20 19 36 40 36 46 0 6 5 8 10 5
6 -3 10 -1 10 4 0 6 15 26 34 46 19 19 32 35 29 35 -2 0 12 15 31 34 20 18 33
36 29 40 -3 3 1 6 11 6 9 0 14 5 11 10 -3 6 -2 10 3 10 5 0 25 20 44 45 19 24
38 42 41 39 3 -3 8 4 12 15 3 12 15 26 26 31 10 6 19 15 19 19 0 8 53 70 123
143 15 16 27 31 27 34 0 4 17 22 37 40 20 19 33 34 27 34 -5 1 2 7 16 15 14 8
21 14 16 15 -5 0 2 10 15 23 21 20 84 90 160 178 85 98 139 158 167 187 17 18
32 35 32 39 0 3 7 11 17 18 23 17 8 38 -18 25 -14 -8 -19 -7 -19 2 0 9 -3 9
-10 -2 -8 -13 -10 -13 -10 -1 0 11 -3 12 -12 3 -8 -8 -17 -8 -31 -1 -15 8 -18
8 -12 -1 6 -9 2 -9 -14 -1 -11 7 -21 8 -21 3 0 -4 -9 -8 -20 -8 -11 0 -20 4
-20 8 0 5 -10 4 -21 -3 -16 -8 -20 -8 -14 1 6 9 2 9 -14 1 -16 -9 -21 -9 -21
0 0 8 -5 7 -17 -2 -13 -11 -17 -11 -21 -1 -3 10 -7 10 -18 1 -11 -9 -14 -9
-14 1 0 10 -3 10 -15 0 -12 -10 -15 -10 -15 0 0 10 -3 10 -15 0 -12 -10 -15
-10 -15 0 0 10 -3 10 -15 0 -8 -7 -15 -8 -15 -3 0 10 -52 9 -69 -2 -6 -3 -11
-1 -11 6 0 8 -4 8 -16 -2 -13 -10 -17 -10 -24 0 -5 9 -10 10 -14 2 -5 -8 -13
-8 -28 0 -16 8 -19 8 -13 -1 6 -9 2 -9 -14 -1 -11 7 -21 8 -21 3 0 -4 -9 -8
-20 -8 -11 0 -20 4 -20 8 0 4 -11 3 -24 -2 -17 -6 -26 -5 -30 3 -3 9 -5 9 -5
-1 -1 -9 -7 -10 -18 -4 -19 9 -93 8 -117 -1 -8 -3 -17 -1 -20 6 -3 9 -5 8 -5
-1 -1 -9 -7 -10 -18 -4 -21 9 -84 9 -101 -2 -7 -4 -12 -2 -12 5 0 10 -3 10
-12 1 -8 -8 -17 -8 -31 -1 -15 8 -18 8 -12 -1 6 -9 2 -9 -14 -1 -11 7 -21 8
-21 3 0 -4 -9 -8 -20 -8 -11 0 -20 4 -20 8 0 5 -10 4 -21 -3 -16 -8 -20 -8
-14 1 6 9 2 9 -14 1 -16 -9 -21 -9 -21 0 0 8 -5 7 -17 -2 -13 -11 -17 -11 -21
-1 -3 10 -7 10 -18 1 -11 -9 -14 -9 -14 1 0 10 -3 10 -15 0 -12 -10 -15 -10
-15 0 0 10 -3 10 -15 0 -12 -10 -15 -10 -15 0 0 10 -3 10 -15 0 -8 -7 -15 -8
-15 -3 0 10 -52 9 -69 -2 -6 -3 -11 -1 -11 6 0 8 -4 8 -16 -2 -13 -10 -17 -10
-24 0 -4 8 -10 9 -13 4z"/>
<path d="M2427 2324 c-12 -14 -31 -36 -42 -48 -11 -12 -49 -56 -85 -96 -36
-41 -73 -82 -82 -92 -10 -10 -16 -18 -13 -18 2 0 -16 -20 -40 -45 -25 -24 -45
-47 -45 -49 0 -3 -15 -20 -32 -39 -18 -18 -53 -57 -78 -86 -25 -28 -66 -75
-92 -104 -27 -28 -48 -55 -48 -59 0 -5 -7 -8 -16 -8 -8 0 -12 -4 -9 -10 3 -5
1 -10 -6 -10 -7 0 -10 -3 -7 -6 3 -3 -13 -23 -35 -45 -23 -21 -39 -39 -36 -39
3 0 -23 -30 -58 -67 -35 -37 -63 -71 -63 -76 0 -4 -5 -5 -12 -1 -6 4 -8 3 -4
-4 3 -6 -5 -19 -19 -30 -13 -11 -21 -22 -18 -26 3 -3 -2 -6 -12 -6 -10 0 -16
-3 -12 -6 3 -3 -4 -16 -16 -29 -12 -12 -42 -46 -67 -74 -25 -29 -66 -75 -92
-102 -27 -28 -48 -53 -48 -56 0 -2 -16 -20 -35 -39 -19 -18 -35 -36 -35 -40 0
-3 -12 -18 -27 -33 -50 -50 -103 -113 -103 -123 0 -5 -4 -6 -10 -3 -5 3 -10 2
-10 -3 0 -9 -46 -63 -121 -144 -20 -21 -34 -38 -30 -38 3 0 -6 -11 -21 -24
-16 -13 -28 -29 -28 -35 0 -7 -4 -10 -9 -7 -4 3 -13 -6 -20 -20 -7 -16 -16
-22 -24 -18 -6 4 -9 4 -5 -1 4 -4 -6 -21 -23 -39 -16 -17 -32 -39 -35 -49 -3
-9 -9 -15 -14 -12 -4 3 -16 -7 -25 -22 -10 -14 -35 -44 -56 -64 -22 -21 -39
-41 -39 -44 0 -3 -18 -24 -40 -47 -22 -24 -40 -46 -40 -50 0 -10 -61 -9 785
-10 816 0 855 1 855 15 0 6 3 7 6 4 4 -3 16 -1 28 5 11 7 23 13 26 14 15 3 54
23 47 23 -4 1 8 15 27 31 34 30 74 95 83 135 2 11 5 43 7 71 2 28 6 56 10 62
3 6 2 13 -4 17 -5 3 -10 11 -10 16 0 6 4 7 10 4 6 -3 7 1 4 10 -10 26 -11 88
-2 107 5 10 4 19 -2 23 -5 3 -10 11 -10 16 0 6 4 7 10 4 6 -3 7 1 4 10 -10 26
-11 88 -2 107 5 10 4 19 -2 23 -5 3 -10 11 -10 16 0 6 4 7 10 4 6 -3 7 1 4 10
-10 26 -11 88 -2 107 5 10 4 19 -2 23 -5 3 -10 11 -10 16 0 6 4 7 10 4 6 -3 7
1 4 10 -10 26 -11 88 -2 107 5 10 4 19 -2 23 -5 3 -10 11 -10 16 0 6 4 7 10 4
6 -3 7 1 4 10 -10 26 -11 88 -2 107 5 10 4 19 -2 23 -5 3 -10 11 -10 16 0 6 4
7 10 4 6 -3 7 1 4 10 -10 26 -11 88 -2 107 5 10 4 19 -2 23 -5 3 -10 11 -10
16 0 6 4 7 10 4 6 -3 7 1 4 10 -10 26 -11 88 -2 107 5 10 4 19 -2 23 -5 3 -10
11 -10 16 0 6 4 7 10 4 6 -3 7 1 4 10 -10 26 -11 88 -2 107 5 10 4 19 -2 23
-5 3 -10 11 -10 16 0 6 4 7 10 4 6 -3 7 1 4 10 -10 26 -11 88 -2 107 5 10 4
19 -2 23 -5 3 -10 11 -10 16 0 6 4 7 10 4 6 -3 7 1 4 10 -11 27 -11 89 -1 109
7 14 6 16 -4 11 -9 -6 -10 -3 -5 11 5 10 8 24 7 29 -6 67 -6 92 2 103 18 24
-13 12 -36 -14z"/>
</g>
</svg>
